<svg version="1.2" xmlns="http://www.w3.org/2000/svg" viewBox="0 0 1353 1555" width="1353" height="1555">
	<title>Cyberark-logo-dark-svg</title>
	<defs>
		<clipPath clipPathUnits="userSpaceOnUse" id="cp1">
			<path d="m1352.7 765.68v393.98l-6.19 11.15-662.12 382.84h-13.61l-663.35-381.6-6.19-11.15-1.24-765.67 6.19-11.15 663.35-384.08h13.61l662.12 384.08v22.3l-334.15 193.27v340.72l321.77-185.85zm-1311.85 395.23l623.75 359.3v-363.02l-309.4-178.41zm-1.24-765.67l315.59 180.89 308.16-178.41v-363.02zm649.74-360.53v363.01l309.4 178.41 314.35-182.13zm-349 921.79v-358.06l-314.35-180.89 1.24 721.07 314.35-182.12zm323.01-527.8l-295.79 170.98v340.71l295.79-170.97zm25.99 340.71l295.78 172.21v-341.95l-295.78-170.97zm283.41 194.51l-295.79-170.97-295.78 170.97 295.78 169.74zm353.96-174.69l-636.13 367.97v363.01l636.13-367.97z"/>
		</clipPath>
		<linearGradient id="g1" x1="676.9" y1="-89.9" x2="676.9" y2="1686.8" gradientUnits="userSpaceOnUse">
			<stop offset="0" stop-color="#38b1e6"/>
			<stop offset="0" stop-color="#38b1e6"/>
			<stop offset=".3" stop-color="#329cd7"/>
			<stop offset=".8" stop-color="#296fb8"/>
			<stop offset="1" stop-color="#296fb8"/>
		</linearGradient>
	</defs>
	<style>
		.s0 { fill: url(#g1) } 
	</style>
	<g id="Layer">
		<g id="Layer">
			<g id="Clip-Path" clip-path="url(#cp1)">
				<path id="Layer" class="s0" d="m0 0h1352.7v1554.9h-1352.7z"/>
			</g>
		</g>
	</g>
</svg>