<svg xmlns="http://www.w3.org/2000/svg" viewBox="73.2 94.8 524.4 105" aria-label="CyberArk"><path fill="white" d="M227.9 163.4c-4.8 4.7-10.8 6.8-17.3 6.8-16.7 0-24.1-11.5-24.2-23.6-.1-12.1 7.9-24.1 24.2-24.1 6.2 0 12.1 2.4 16.8 6.9l-4.9 4.8c-3.2-3.2-7.6-4.8-11.9-4.8-11.7 0-17 8.6-16.9 17 .1 8.5 5.1 16.7 16.9 16.7 4.3 0 9-1.7 12.2-5l5.1 5.3zm27-19.7 13.1-20.3h8.8v.3l-18.3 26.7v18.9h-7.3v-18.9l-17.7-26.8v-.3h8.7l12.7 20.4zm39 18.8h13.8c4.1 0 9.7-1.3 9.7-6.4 0-4.9-5.4-7.2-9.7-7.2h-13.9l.1 13.6zm0-20.1h13.9c5.5 0 8.3-2.2 8.3-5.8 0-3.2-2.9-6.6-8.4-6.6h-13.8v12.4zm13.8-19.1c8.7 0 15.6 4 15.6 13.1 0 3.8-2 7.3-6.4 9.1 5.5 1.7 7.9 7.1 7.9 10.6 0 10-8 13.1-17 13.1h-21.1v-46c0 .1 21 .1 21 .1zm63.2 46h-34v-46h33.8v7.1h-26.4v12.4h25.4v6.8h-25.4v12.3H371l-.1 7.4zM391 130v16.7h14c6.1 0 8.7-3.8 8.7-8.2 0-4.2-2.7-8.5-8.7-8.5h-14zm32.3 39.3h-8.6l-14-15.9H391v15.9h-7.3v-46c7.2 0 14.3.1 21.4.1 10.6 0 16.3 7.3 16.3 15 0 6.6-3.4 13-12.4 14.3l13.7 15.3.6 1.3zm31.4-33.1-5.9 14.6h11.8l-5.9-14.6zm10.2 25.6h-20.5l-3 7.5h-13.8l20.6-46h13.1l20.5 46h-14l-2.9-7.5zm36.9-28.1v11h9.6c3.4 0 4.9-2.6 4.9-5.3 0-2.9-1.7-5.7-5.1-5.7h-9.4zm29.6 35.6H517l-10.7-14.9h-4.5v14.9h-13v-46h22.4c11.8 0 17.9 7.5 17.9 15.8 0 5.7-2 10.5-9.7 13.9l12 15.5v.8zm49.8-45.2-18.6 21.8c6.5 7.1 13.9 15.4 20.2 22.6v.8h-16.2L553.5 154v15.3h-13v-46h13v15.1c3.9-4.8 8.2-10.3 12.1-15.1h15.6v.8z"></path><path fill="white" d="M162.9 172.6l-43 24.8v-24.5l43-24.8v24.5zm-65.6-11.7 20.9 12.1v24.5l-42.1-24.2 21.2-12.4zm20.9-63.7v24.5l-20.8 12.1-21.3-12.2 42.1-24.4zm43.9 24.2-21.2 12.3-20.9-12.1V97.2l42.1 24.2zm-65.7 38-21.2 12.3-.1-48.7 21.2 12.2.1 24.2zm21.8-12.7-20 11.5v-23l20-11.5v23zm1.7-22.9 20 11.5v23.1l-20-11.6v-23zm-.8 47.5-20-11.4 20-11.5 20 11.5-20 11.4zm44.3-25.5-21.8 12.5v-23l22.5-13v-1.5l-44.7-25.9h-1l-44.8 25.9-.4.8.1 51.6.4.8 44.8 25.8h1l44.7-25.9.4-.8v-26.6l-1.2-.7z"></path></svg>
