<svg xmlns="http://www.w3.org/2000/svg" width="290" height="32" viewBox="0 0 290 32"><title>Shorelight</title><path fill="white" d="M590.090732,47.5537744 C596.429571,49.0944563 600,51.2196592 600,56.3026468 L600,56.3874385 C600,62.1785263 595.269061,65.4285714 588.529212,65.4285714 C583.797307,65.4285714 579.021919,63.8869873 575.272727,60.7623257 L579.33403,56.2196593 C582.145923,58.3872581 585.092131,59.7610628 588.66256,59.7610628 C591.474454,59.7610628 593.171253,58.7201103 593.171253,57.0116491 L593.171253,56.9295636 C593.171253,55.3040901 592.100608,54.4697043 586.876862,53.2203809 C580.583438,51.7202906 576.522136,50.0948171 576.522136,44.3028272 L576.522136,44.2198397 C576.522136,38.9275792 581.074312,35.4285714 587.457601,35.4285714 C592.009777,35.4285714 595.893282,36.7617845 599.062702,39.1368521 L595.491307,43.969975 C592.724829,42.1785263 590.001833,41.095178 587.368702,41.095178 C584.735571,41.095178 583.350883,42.2200201 583.350883,43.6371227 L583.350883,43.7201103 C583.350883,45.6369423 584.691122,46.2620551 590.090732,47.5537744 Z M622.659069,47.2999761 L622.659069,35.4285714 L629.090909,35.4285714 L629.090909,65.4285714 L622.659069,65.4285714 L622.659069,53.3855207 L610.79638,53.3855207 L610.79638,65.4285714 L604.363636,65.4285714 L604.363636,35.4285714 L610.79638,35.4285714 L610.79638,47.2999761 L622.659069,47.2999761 Z M660.129763,50.3721753 L660.129763,50.2847745 C660.129763,45.0764394 656.345668,40.7355336 651.011248,40.7355336 C645.67776,40.7355336 641.979328,44.9890386 641.979328,50.1983136 L641.979328,50.2847745 C641.979328,55.4940493 645.764354,59.8358949 651.097843,59.8358949 C656.431331,59.8358949 660.129763,55.5814501 660.129763,50.3721753 Z M651.097843,34.5714286 C660.387685,34.5714286 667.054545,41.5597324 667.054545,50.1983136 L667.054545,50.2847745 C667.054545,58.9242954 660.302021,66 651.011248,66 C641.721406,66 635.054545,59.0107564 635.054545,50.3721753 L635.054545,50.2847745 C635.054545,41.6461934 641.808001,34.5714286 651.097843,34.5714286 Z M691.249227,45.7570183 L691.249227,45.6716592 C691.249227,42.8427485 689.258375,41.3851496 686.013051,41.3851496 L679.391242,41.3851496 L679.391242,49.9999205 L686.143276,49.9999205 C689.387663,49.9999205 691.249227,48.2853167 691.249227,45.7570183 Z M698.000325,45.4137264 C698.000325,50.2578532 695.360221,53.3001617 691.508741,54.7141531 L698.909091,65.4285714 L691.119939,65.4285714 L684.628355,55.8284601 L679.391242,55.8284601 L679.391242,65.4285714 L672.727273,65.4285714 L672.727273,35.4285714 L686.575174,35.4285714 C690.426654,35.4285714 693.413401,36.5001988 695.403317,38.4718077 C697.090623,40.1428041 698.000325,42.4994566 698.000325,45.3292951 L698.000325,45.4137264 Z M711.407547,53.2571057 L711.407547,59.5580985 L728,59.5580985 L728,65.4285714 L704.727273,65.4285714 L704.727273,35.4285714 L727.781641,35.4285714 L727.781641,41.2999722 L711.407547,41.2999722 L711.407547,47.385705 L725.817355,47.385705 L725.817355,53.2571057 L711.407547,53.2571057 Z M740.498386,35.4285714 L740.498386,59.4291281 L755.636364,59.4291281 L755.636364,65.4285714 L733.818182,65.4285714 L733.818182,35.4285714 L740.498386,35.4285714 Z M761.454545,65.4285714 L761.454545,35.4285714 L768.727273,35.4285714 L768.727273,65.4285714 L761.454545,65.4285714 Z M790.377345,53.1868224 L790.377345,47.4136715 L803.636364,47.4136715 L803.636364,60.6102506 C800.496044,63.2585885 796.178343,65.4285714 790.595448,65.4285714 C781.088573,65.4285714 774.545455,58.7870514 774.545455,49.8007467 L774.545455,49.7142857 C774.545455,41.0757046 781.306676,34 790.55296,34 C796.047102,34 799.362093,35.4754757 802.545844,38.167044 L798.314062,43.2456876 C795.960239,41.2927969 793.866063,40.164105 790.333913,40.164105 C785.448763,40.164105 781.567268,44.4608405 781.567268,49.626885 L781.567268,49.7142857 C781.567268,55.2703444 785.405331,59.3518673 790.814496,59.3518673 C793.256127,59.3518673 795.436222,58.7438208 797.137621,57.5277283 L797.137621,53.1868224 L790.377345,53.1868224 Z M827.749074,47.2999761 L827.749074,35.4285714 L834.181818,35.4285714 L834.181818,65.4285714 L827.749074,65.4285714 L827.749074,53.3855207 L815.886385,53.3855207 L815.886385,65.4285714 L809.454545,65.4285714 L809.454545,35.4285714 L815.886385,35.4285714 L815.886385,47.2999761 L827.749074,47.2999761 Z M840,41.5143043 L840,35.4285714 L864.727273,35.4285714 L864.727273,41.5143043 L855.6471,41.5143043 L855.6471,65.4285714 L849.081097,65.4285714 L849.081097,41.5143043 L840,41.5143043 Z" transform="translate(-575 -34)"></path></svg>
